<svg id="Layer_1" data-name="Layer 1" xmlns="http://www.w3.org/2000/svg" viewBox="0 0 300 100"><defs><style>.cls-1{fill:#fff;}</style></defs><path class="cls-1" d="M130.55,18.93a4.24,4.24,0,0,1-.78,1.53l-1.08,1.32-4,9.47c0,.86-.09,1.57-.12,2.14a2.53,2.53,0,0,1-.5,1.42l-.37-1a9.69,9.69,0,0,1,.88-3.63q.78-1.8,1.56-3.63a2,2,0,0,0,.48-.91A4.18,4.18,0,0,1,127.4,24a9.43,9.43,0,0,0,.39-1c.14-.45.25-.81.32-1.08l.75-1.6,1-1.12Z"/><path class="cls-1" d="M139.24,25.72a1.38,1.38,0,0,1-.13.82c-.14.29-.27.57-.41.85a3.7,3.7,0,0,0-.51,1.12,2.12,2.12,0,0,1-.34.71c-.09.2-.3.61-.62,1.2a7.09,7.09,0,0,0-.63,1.4c-.09.33-.16.61-.21.85a3.41,3.41,0,0,0-.06.52,1,1,0,0,0,.23.71l.27.44,1.16.17a.13.13,0,0,1,0,.16l-.2.12-1,.1a3.79,3.79,0,0,1-1.26-.19,1.88,1.88,0,0,1-.92-.66V32.38a3.76,3.76,0,0,0,.34-.51c.34-.68.54-1.07.61-1.16a15.62,15.62,0,0,0,1.12-2.31.21.21,0,0,0-.1-.17l-2,1.63c-.14.09-.95.81-2.43,2.14a6.42,6.42,0,0,1-1.52,1.09l.47-2.45h-.23a5.1,5.1,0,0,1-.48.89,8.14,8.14,0,0,1-.71.81l.27-.78,1.29-3a.9.9,0,0,1,.27-.46.85.85,0,0,1,.44-.29,2.35,2.35,0,0,1,.27,1.12,5,5,0,0,1-.1.95,13.52,13.52,0,0,0-.24,1.56c.45-.34.88-.69,1.27-1.05a7.41,7.41,0,0,0,1-1.12l1-.71.4-.41,2.79-2.31a.64.64,0,0,1,.51-.17A.76.76,0,0,1,139.24,25.72Z"/><path class="cls-1" d="M155.43,27.15a4.85,4.85,0,0,1-.13,1.22v2A3,3,0,0,0,155,31.8a2.68,2.68,0,0,1-.41,1.49,3.19,3.19,0,0,1-.92,1.67c-.45.43-.91.87-1.36,1.32l-.38.14a2.14,2.14,0,0,1-.44.51,5.76,5.76,0,0,0-.58.47c-.54.23-1,.38-1.23.48a3.47,3.47,0,0,1-1.19.27,4.64,4.64,0,0,1-1.5-.26,1.83,1.83,0,0,1-1-.76,1,1,0,0,1-.1-.44,3,3,0,0,1,.2-1,3.5,3.5,0,0,1,.24-.54l.74-.1-.64,1.19a1.45,1.45,0,0,0,.63.49,5.45,5.45,0,0,0,1.47.36,6.61,6.61,0,0,0,2.65-1,11.67,11.67,0,0,0,3-3.16q.24-.06.33-1a7.82,7.82,0,0,1,.18-1.28,5.51,5.51,0,0,0,.17-.91,8,8,0,0,0,.07-1.09,14.53,14.53,0,0,0-.12-1.83c-.08-.63-.15-1.27-.22-1.9-.27-.68-.47-1.19-.61-1.53a10.56,10.56,0,0,0-.68-1.39c-.27,0-.42.07-.44.2s0,.31,0,.38a13.55,13.55,0,0,0-1.42,3.66c-.59,2.2-1,3.54-1.16,4-.18.34-.31.6-.4.78a7.66,7.66,0,0,1-.43.8c-.1.15-.22.36-.37.63s-.32.41-.53.41L150,28.24l.92-2.41.27-.07c.34-1,.59-1.74.75-2.24a19.75,19.75,0,0,0,.74-2.34,4.77,4.77,0,0,0-1.12-1.7,3.28,3.28,0,0,1-.67-1.09q-.62-.57-1.23-1.2a3,3,0,0,1-.78-1.31l-.51-1.12c.07-.38.18-.57.34-.57l2.48,3.39a1.72,1.72,0,0,1,.61.51l.51.81a3.22,3.22,0,0,0,.54.78,1.67,1.67,0,0,1,.48.89l1.49,2.81-.07.14.38.95c.11.54.2,1,.25,1.43A8.47,8.47,0,0,1,155.43,27.15Z"/><path class="cls-1" d="M163.72,26.81l0,1a.89.89,0,0,1-.25.32l-.29.22-.31.81a5.84,5.84,0,0,1-1.79,1.4l-2,1.05a.71.71,0,0,0,.14.56,1,1,0,0,1,.2.49l.58.61a2.52,2.52,0,0,0,1.19.27,5.23,5.23,0,0,0,.75-.05l.61-.08a.87.87,0,0,0,.34.14.28.28,0,0,1,0,.22.89.89,0,0,0,0,.19l-2.48.84h-.92a2.14,2.14,0,0,1-1.7-1.47v-.93a7.44,7.44,0,0,1,.14-1.48,5.13,5.13,0,0,1,.54-1.42,1.47,1.47,0,0,0,.2-.51,5.08,5.08,0,0,1,.17-.59,11.63,11.63,0,0,1,1.76-1.94,6.37,6.37,0,0,1,2.29-1.3l.41.1a1.46,1.46,0,0,1,.37.68A4,4,0,0,1,163.72,26.81Zm-.89,1.39-.34-1.56a.6.6,0,0,0-.33-.1,1.14,1.14,0,0,0-.43.1l-.46.2c-.06.1-.17.25-.32.48s-.25.35-.32.37a3.43,3.43,0,0,0-1,1.38c-.21.55-.37,1-.46,1.24.05.06.11.08.17,0l3-1.53Z"/><path class="cls-1" d="M180.86,10.09l-1,.94c-.09-.3-.24-.45-.44-.45a1.28,1.28,0,0,0-.34.07c-.14,0-.29.1-.44.17l-1.6,2-1.63,2.07a1,1,0,0,1-.39.49l-.35.29c-.12.34-.22.63-.31.87l-.3.76a16.21,16.21,0,0,0-1.84,3.09c-.29.56-.7,1.39-1.22,2.48l-1.58,4.15-.69,1.21,4.1-1-.2.65-2.82,1.18-1.63.58q-.19.68-.27,1a7,7,0,0,1-.37,1.05,5.31,5.31,0,0,0-.7,1.38,3.29,3.29,0,0,1-.76,1.3L164.84,39s-.25.47-.68,1.36c-.14.27-.34.69-.61,1.26l-1.12,2.52a1.42,1.42,0,0,0-.51.48,2.62,2.62,0,0,1-.48.54.61.61,0,0,1-.1-.34,2.55,2.55,0,0,0,.1-.58l.58-.37.65-2.25,1.27-2.69,1.51-4.38L166.87,30l-.55,0L165,31l-2.37,1.15a6,6,0,0,1,3.26-2.58,2,2,0,0,1,.85-.44l.88-.27,2-4.72a3.38,3.38,0,0,0,.39-.66l.39-.8,1.29-2.58q1.29-2.25,2.58-4.53a2.38,2.38,0,0,0,.44-.88A5.19,5.19,0,0,1,175,14c.43-.18.64-.39.64-.64L179.06,10a5.16,5.16,0,0,1,.64-.27c.48-.16.76-.18.85-.07Z"/><path class="cls-1" d="M178.86,26.81l0,1a1,1,0,0,1-.25.32l-.29.22-.31.81a5.89,5.89,0,0,1-1.8,1.4l-2,1.05a.71.71,0,0,0,.14.56,1.1,1.1,0,0,1,.2.49l.58.61a2.49,2.49,0,0,0,1.19.27,5,5,0,0,0,.74-.05l.61-.08a1.06,1.06,0,0,0,.34.14.24.24,0,0,1,0,.22,1.08,1.08,0,0,0,0,.19l-2.47.84h-.92a2.23,2.23,0,0,1-1.1-.53,2.14,2.14,0,0,1-.6-.94v-.93a7.44,7.44,0,0,1,.14-1.48,5.13,5.13,0,0,1,.54-1.42,1.7,1.7,0,0,0,.2-.51,3.66,3.66,0,0,1,.17-.59,11.62,11.62,0,0,1,1.75-1.94,6.41,6.41,0,0,1,2.3-1.3l.4.1a1.47,1.47,0,0,1,.38.68A4,4,0,0,1,178.86,26.81ZM178,28.2l-.34-1.56a.61.61,0,0,0-.34-.1,1.14,1.14,0,0,0-.42.1l-.46.2-.32.48c-.15.23-.25.35-.32.37a3.43,3.43,0,0,0-1,1.38c-.21.55-.37,1-.46,1.24,0,.06.1.08.17,0l3-1.53Z"/><path class="cls-1" d="M188.87,25.72a1.39,1.39,0,0,1-.14.82c-.13.29-.27.57-.4.85a3.25,3.25,0,0,0-.51,1.12,2.6,2.6,0,0,1-.34.71c-.09.2-.3.61-.63,1.2a7.09,7.09,0,0,0-.63,1.4c-.09.33-.16.61-.2.85a2.65,2.65,0,0,0-.07.52,1,1,0,0,0,.24.71l.27.44,1.15.17a.15.15,0,0,1,0,.16l-.2.12-1,.1a3.79,3.79,0,0,1-1.26-.19,1.91,1.91,0,0,1-.93-.66V32.38a3,3,0,0,0,.34-.51c.34-.68.55-1.07.61-1.16a14.69,14.69,0,0,0,1.12-2.31.21.21,0,0,0-.1-.17l-2,1.63c-.14.09-.94.81-2.43,2.14a6.22,6.22,0,0,1-1.52,1.09l.48-2.45h-.24a5.1,5.1,0,0,1-.48.89,7,7,0,0,1-.71.81l.27-.78,1.29-3a.9.9,0,0,1,.27-.46.85.85,0,0,1,.44-.29,2.35,2.35,0,0,1,.27,1.12,5,5,0,0,1-.1.95,13.52,13.52,0,0,0-.24,1.56c.46-.34.88-.69,1.28-1.05a7.32,7.32,0,0,0,1-1.12l1-.71.41-.41L188,25.79a.64.64,0,0,1,.51-.17A.8.8,0,0,1,188.87,25.72Z"/><path class="cls-1" d="M201.87,32.14l-1.43.78a9,9,0,0,1-1.17.58,6.18,6.18,0,0,1-1.2.3l-1.77.65a5.29,5.29,0,0,1-1.63.3q-.33,0-.66,0a2.79,2.79,0,0,1-.66-.17l-1.6-.51a3.08,3.08,0,0,1-.74-.34.59.59,0,0,1-.28-.65,2.7,2.7,0,0,1-.78-2,3.74,3.74,0,0,1,.55-1.93A3.12,3.12,0,0,1,192,27.79a1.54,1.54,0,0,0,.3-.12c.07,0,.86-.77,2.38-2.22a2.42,2.42,0,0,1,1.7-.75,2.81,2.81,0,0,1,1.63-.57,1.64,1.64,0,0,1,1,.45,1.29,1.29,0,0,1,.56,1c0,.53-.51,1.08-1.52,1.67a5.35,5.35,0,0,1-2.21.88c-.11,0-.17,0-.17-.08s.07-.15.2-.26a6.67,6.67,0,0,0,1.53-.68c.68-.38,1-.71,1-1s-.11-.29-.34-.38c.18-.15.19-.28,0-.37a1.79,1.79,0,0,0-.8-.14,3.86,3.86,0,0,0-1,.12,1.58,1.58,0,0,0-.71.39c-.45,0-.84.32-1.16.95a2.93,2.93,0,0,1-1.08,1.36c-.32.07-.53.33-.65.78s-.36.63-.54.92a2.29,2.29,0,0,0-.27,1,1.12,1.12,0,0,0,.27.78,1.19,1.19,0,0,0,.22,1,.85.85,0,0,0,.83.39,2.43,2.43,0,0,0,2,1,10,10,0,0,0,3.06-.81,17.24,17.24,0,0,1,2-.72,1.6,1.6,0,0,0,.75-.3,1.81,1.81,0,0,1,.61-.31.32.32,0,0,1,.27.17Z"/><path class="cls-1" d="M206.35,26.81l0,1a1,1,0,0,1-.26.32l-.29.22-.3.81a6,6,0,0,1-1.8,1.4l-2,1.05a.71.71,0,0,0,.14.56,1,1,0,0,1,.2.49l.58.61a2.52,2.52,0,0,0,1.19.27,5.05,5.05,0,0,0,.75-.05l.61-.08a1,1,0,0,0,.34.14.28.28,0,0,1,0,.22.89.89,0,0,0,0,.19l-2.48.84h-.92a2.14,2.14,0,0,1-1.7-1.47v-.93a7.44,7.44,0,0,1,.14-1.48,5.13,5.13,0,0,1,.54-1.42,1.47,1.47,0,0,0,.2-.51,5.08,5.08,0,0,1,.17-.59,11.63,11.63,0,0,1,1.76-1.94,6.37,6.37,0,0,1,2.29-1.3l.41.1a1.46,1.46,0,0,1,.37.68A3.41,3.41,0,0,1,206.35,26.81Zm-.88,1.39-.34-1.56a.66.66,0,0,0-.34-.1,1.18,1.18,0,0,0-.43.1l-.45.2c-.07.1-.18.25-.33.48s-.25.35-.32.37a3.43,3.43,0,0,0-1,1.38c-.21.55-.36,1-.45,1.24a.11.11,0,0,0,.17,0l3-1.53Z"/><path class="cls-1" d="M222,29.69a7.81,7.81,0,0,1-.25,2.06,4.46,4.46,0,0,1-.83,1.64l-.31,0a7.44,7.44,0,0,1-1,.65l-1.17.54-1.4.39a2.29,2.29,0,0,1-1,.08,3.34,3.34,0,0,0-.27-.34q-.32-.33-.54-.3a1.47,1.47,0,0,1-.21-.71,7.37,7.37,0,0,1,.17-1,2.62,2.62,0,0,0,.07-.62c.47-.9.79-1.51.95-1.83a19.57,19.57,0,0,1,1-1.7c.31-.36.57-.65.78-.88s.64-.67.91-.91V26.2a2.51,2.51,0,0,1,.68-.87,1.64,1.64,0,0,1,1-.35l.75,1a2.52,2.52,0,0,0,.25,1.07,3,3,0,0,1,.29,1.17Zm-1.39,0a9.33,9.33,0,0,0-.47-2.91,13.58,13.58,0,0,0-1.16,1.32c-.31.41-.69.93-1.12,1.57a5.64,5.64,0,0,1-.37.49,1.52,1.52,0,0,0-.34.56s0,.12-.09.22-.16.21-.25.32l-.34,2.17a.46.46,0,0,0,.2.41.87.87,0,0,0,.48.14h1.19l1.46-.68A7.83,7.83,0,0,0,220.57,29.65Z"/><path class="cls-1" d="M240.06,10.09l-.95.94c-.1-.3-.24-.45-.45-.45a1.22,1.22,0,0,0-.33.07l-.45.17-1.59,2-1.63,2.07a1.1,1.1,0,0,1-.39.49l-.36.29q-.16.51-.3.87c-.09.23-.19.49-.31.76a16.39,16.39,0,0,0-1.83,3.09c-.3.56-.7,1.39-1.22,2.48l-1.58,4.15-.7,1.21,4.11-1-.21.65-2.81,1.18-1.63.58a8.94,8.94,0,0,0-.27,1,6.94,6.94,0,0,1-.38,1.05,5.72,5.72,0,0,0-.69,1.38,3.28,3.28,0,0,1-.77,1.3L224,39s-.24.47-.67,1.36c-.14.27-.34.69-.62,1.26l-1.12,2.52a1.33,1.33,0,0,0-.5.48,2.62,2.62,0,0,1-.48.54.61.61,0,0,1-.1-.34,3.3,3.3,0,0,0,.1-.58l.58-.37.65-2.25,1.27-2.69,1.51-4.38L226.06,30l-.54,0L224.2,31l-2.37,1.15a6,6,0,0,1,3.26-2.58,2,2,0,0,1,.85-.44l.88-.27,2-4.72a3.38,3.38,0,0,0,.39-.66l.39-.8,1.29-2.58q1.29-2.25,2.58-4.53a2.38,2.38,0,0,0,.44-.88c.12-.3.21-.5.27-.62.43-.18.65-.39.65-.64L238.26,10a5.16,5.16,0,0,1,.64-.27c.48-.16.76-.18.85-.07Z"/><path class="cls-1" d="M86,94.06V41h16.19l4.55,35.65h.15L112.08,41h14.69V94.06H117.3V55.12l-.15-.15-6.42,39.09h-9L95.59,55.72h-.14V94.06Z"/><path class="cls-1" d="M129.75,60.49c0-6.41,5.07-9.62,11.11-9.62s11.19,3.21,11.19,9.62V85.41c0,3,.45,5.81.67,8.65H143.1l-.52-4.33h-.15c-1.27,3.43-3.58,4.85-6.34,4.85-4.77,0-6.34-2.83-6.34-7.68V77.72c0-10.74,12.83-6.63,12.83-15.88V60.12c0-1-.45-2.24-1.72-2.24s-1.64,1.2-1.64,2.24v6.12h-9.47V60.49Zm9.47,24.84c0,1,.38,2.24,1.64,2.24s1.72-1.2,1.72-2.24V73l-1.72,1.2c-1.34,1.19-1.64,1.49-1.64,3.35Z"/><path class="cls-1" d="M164.06,55.05h.15A7.2,7.2,0,0,1,171,50.87c4.7,0,5.9,2.84,5.9,7.46v16h-9.48V60.87c0-1-.44-2.24-1.71-2.24s-1.64,1.19-1.64,2.24V94.06h-9.47V51.39h9.47v3.66Z"/><path class="cls-1" d="M183.52,71.61,178.67,51.4h9.92l2.54,16.25h.15l2.53-16.25h8.73l-4.7,20.51,5.07,22.15h-10l-2.69-17.23h-.15L187,94.06h-8.8Z"/><path class="cls-1" d="M204.47,49V41H214V49Zm0,45.05V51.39H214V94.06Z"/><path class="cls-1" d="M229.76,60.12c0-1-.45-2.24-1.94-2.24S226,59.08,226,60.12v2.46c0,7.46,13.28,5.82,13.28,19V85c0,6.41-5.22,9.62-11.41,9.62-5.82,0-11.34-3.21-11.34-9.62V77.87H226v7.46c0,1,.38,2.24,1.87,2.24s1.94-1.2,1.94-2.24V81.75c0-7.53-13.28-6.64-13.28-17.68V60.49c0-6.41,5.52-9.62,11.34-9.62,6.19,0,11.41,3.21,11.41,9.62v5.75h-9.47Z"/><path class="cls-1" d="M250.79,55.2h.15c1.49-2.83,2.53-4.33,6.34-4.33,3.35,0,5,1,6.11,4.4,1.64-2.83,2.69-4.4,6.49-4.4,6,0,6.57,4.7,6.57,7.91V94.06H267V60.87c0-1-.44-2.24-1.71-2.24s-1.64,1.19-1.64,2.24V94.06h-9.48V60.87c0-1-.44-2.24-1.71-2.24s-1.64,1.19-1.64,2.24V94.06h-9.48V51.39h9.48V55.2Z"/><g id="layer1"><g id="g2608"><path id="path2596" class="cls-1" d="M23.55,90.12l7.58-29.39c26.94,13,38.14-9.55,39.53-20.21C73.33,20.21,48.17,2.08,26.85,12.38c25.91-16.65,48.83-.86,53.23,20.34,4,19.5-13.58,44-40.93,38.24L35.62,93.45A14.8,14.8,0,0,1,23.55,90.12Z"/><path id="path2598" class="cls-1" d="M40.55,44.27,70.14,94a19.4,19.4,0,0,0,10.23-6.26L48.66,39l5.62-3.5,3.07-5.67-4.13-6.58-8.06,1.43L29.21,34.41l-5.3,6.78,4,6.89,9.17-1.8Z"/></g></g></svg>