<?xml version="1.0" standalone="no"?>
<!DOCTYPE svg PUBLIC "-//W3C//DTD SVG 20010904//EN"
 "http://www.w3.org/TR/2001/REC-SVG-20010904/DTD/svg10.dtd">
<svg version="1.0" xmlns="http://www.w3.org/2000/svg"
 width="750.000000pt" height="750.000000pt" viewBox="0 0 750.000000 750.000000"
 preserveAspectRatio="xMidYMid meet">
<metadata>
Created by potrace 1.14, written by Peter Selinger 2001-2017
</metadata>
<g transform="translate(0.000000,750.000000) scale(0.100000,-0.100000)"
fill="#000000" stroke="none">
<path d="M3854 7151 c-6 -37 -6 -67 0 -80 6 -14 5 -34 -2 -57 -6 -21 -7 -45
-2 -58 4 -12 7 -40 5 -63 -2 -22 3 -53 11 -68 16 -31 19 -69 5 -61 -5 4 -12 0
-14 -6 -4 -9 -6 -10 -6 -1 -1 6 3 14 8 17 11 7 2 46 -10 46 -5 0 -9 11 -9 25
0 14 -5 25 -11 25 -7 0 -9 -12 -4 -36 4 -22 3 -34 -3 -30 -14 8 -22 -30 -9
-43 7 -7 6 -15 -3 -26 -8 -10 -9 -15 -1 -15 18 0 12 -49 -9 -70 -11 -11 -19
-23 -19 -27 1 -5 0 -10 -1 -13 -2 -3 -4 -54 -5 -115 -1 -60 2 -100 6 -90 9 23
10 21 13 -17 1 -16 -3 -28 -8 -28 -21 0 109 -119 136 -125 15 -4 28 -11 28
-16 0 -5 3 -9 8 -9 11 0 6 298 -7 377 -20 129 -28 204 -20 209 4 2 1 20 -7 39
-10 24 -11 35 -3 35 8 0 8 4 1 13 -6 7 -11 22 -10 32 1 33 -34 279 -41 288 -4
4 -12 -19 -17 -52z m61 -341 c3 -5 1 -10 -4 -10 -6 0 -11 5 -11 10 0 6 2 10 4
10 3 0 8 -4 11 -10z m-15 -234 c0 -52 -6 -43 -13 18 -3 30 -1 43 4 35 5 -8 9
-32 9 -53z m-30 8 c0 -8 -7 -14 -15 -14 -9 0 -12 -6 -9 -17 5 -17 5 -17 -6 -1
-8 13 -8 23 0 38 12 22 30 18 30 -6z m-50 -25 c0 -9 7 -22 15 -29 9 -7 13 -15
11 -18 -8 -7 -36 25 -36 42 0 8 -5 18 -10 21 -6 4 -7 11 -4 17 8 12 24 -9 24
-33z m41 -100 c-9 -23 -10 -23 -10 -2 -1 12 2 30 6 40 6 15 8 15 11 2 1 -8 -2
-26 -7 -40z"/>
<path d="M3976 6691 c-4 -5 -2 -29 3 -53 28 -127 41 -492 18 -514 -4 -4 -13
-1 -22 6 -9 7 -18 10 -21 7 -20 -19 52 -112 78 -102 15 6 19 23 29 135 2 21
-10 203 -21 329 -5 57 -17 117 -25 134 -8 16 -15 36 -15 43 0 17 -17 27 -24
15z"/>
<path d="M4205 6508 c9 -44 25 -60 25 -26 0 33 -9 58 -22 58 -6 0 -7 -13 -3
-32z"/>
<path d="M3686 6476 c3 -8 1 -17 -5 -21 -6 -3 -11 -1 -11 4 0 6 -4 11 -10 11
-18 0 -10 -37 14 -61 12 -13 28 -34 35 -46 14 -28 54 -32 49 -5 -2 9 -9 17
-15 17 -7 0 -18 6 -25 14 -11 11 -9 12 10 6 28 -8 28 -3 -4 51 -24 41 -50 62
-38 30z"/>
<path d="M3597 6449 c7 -7 15 -10 18 -7 3 3 -2 9 -12 12 -14 6 -15 5 -6 -5z"/>
<path d="M4273 6405 c-3 -9 -3 -32 0 -52 8 -49 -26 -204 -52 -238 -5 -5 -11
-31 -15 -56 -6 -43 -5 -46 15 -44 12 1 38 19 56 41 l34 39 -16 -34 c-21 -42 1
-39 26 5 22 37 23 45 3 37 -14 -5 -15 -3 -5 15 14 25 33 39 25 18 -3 -9 -1
-16 4 -16 12 0 27 38 24 57 -2 8 3 10 12 7 17 -6 56 49 56 79 0 9 4 17 8 17 9
0 32 44 32 62 0 6 -6 6 -15 -2 -9 -7 -14 -19 -11 -27 3 -8 2 -12 -3 -9 -5 3
-21 -10 -36 -30 -32 -42 -68 -44 -73 -5 -5 33 -31 71 -49 71 -12 0 -14 10 -11
40 4 42 1 50 -9 25z"/>
<path d="M3563 6368 c2 -7 13 -40 23 -73 21 -70 32 -88 51 -81 8 4 13 -3 13
-18 0 -13 9 -35 21 -50 13 -16 26 -58 35 -109 8 -45 21 -95 28 -112 23 -48 40
-216 24 -226 -6 -4 -10 -25 -10 -48 1 -25 -3 -39 -9 -35 -6 3 -8 12 -5 20 3 8
1 14 -4 14 -6 0 -10 7 -10 15 0 8 -7 15 -16 15 -26 0 -43 24 -32 46 9 17 8 18
-5 2 -11 -14 -16 -15 -27 -5 -50 47 80 -118 172 -218 l37 -40 1 39 c0 22 -13
94 -29 160 -32 132 -66 346 -65 413 0 24 -3 37 -8 30 -6 -9 -8 -8 -9 3 -1 8
-1 19 0 24 1 4 -4 15 -11 23 -9 11 -9 16 1 22 10 7 10 12 0 30 -8 11 -17 21
-21 21 -3 0 -16 17 -29 38 -54 92 -72 112 -96 112 -16 0 -23 -5 -20 -12z m87
-129 c0 -5 -4 -9 -10 -9 -5 0 -10 7 -10 16 0 8 5 12 10 9 6 -3 10 -10 10 -16z
m150 -623 c0 -6 -5 -3 -11 7 -6 9 -14 15 -20 12 -5 -4 -9 2 -9 11 0 16 1 16
20 -1 11 -10 20 -23 20 -29z"/>
<path d="M2859 6260 c-4 -98 -36 -471 -44 -506 -9 -39 -65 -735 -65 -802 0
-111 10 -63 25 124 8 98 20 235 25 304 6 69 19 231 30 360 11 129 24 273 29
320 19 163 21 205 11 220 -7 11 -10 7 -11 -20z"/>
<path d="M4071 6244 c0 -11 3 -14 6 -6 3 7 2 16 -1 19 -3 4 -6 -2 -5 -13z"/>
<path d="M2906 6242 c-10 -16 -45 -288 -51 -397 -3 -60 -12 -180 -20 -265 -8
-85 -19 -225 -25 -310 -6 -85 -18 -224 -26 -309 -8 -84 -12 -156 -9 -159 17
-17 25 42 44 308 24 336 26 362 40 520 6 63 15 183 21 265 10 149 33 291 51
310 6 5 9 3 9 -8 0 -22 16 -22 28 0 9 15 14 12 47 -21 20 -21 39 -35 42 -32 3
3 -19 28 -48 55 -50 46 -90 63 -103 43z"/>
<path d="M4187 6186 c-4 -10 -7 -25 -6 -34 0 -11 4 -9 10 7 5 13 8 29 6 35 -2
5 -6 2 -10 -8z"/>
<path d="M3629 6153 c-4 -41 -2 -63 6 -64 17 -1 24 39 10 58 -9 11 -15 13 -16
6z"/>
<path d="M3180 6141 c0 -5 7 -11 14 -14 10 -4 13 -1 9 9 -6 15 -23 19 -23 5z"/>
<path d="M2925 6120 c-3 -6 -4 -19 0 -30 3 -10 1 -30 -6 -42 -7 -13 -14 -59
-15 -103 -3 -119 -32 -520 -44 -595 -5 -36 -12 -110 -15 -165 -3 -55 -10 -138
-15 -185 -6 -47 -10 -133 -10 -191 0 -58 -5 -119 -10 -136 -12 -33 -21 -38
-220 -128 -69 -31 -148 -67 -175 -80 -28 -14 -54 -25 -59 -25 -4 0 -36 -13
-70 -29 -33 -16 -122 -55 -196 -86 -74 -32 -169 -73 -211 -91 -42 -19 -79 -34
-82 -34 -3 0 -37 -14 -74 -31 -191 -87 -253 -120 -253 -131 0 -12 58 -42 180
-96 25 -11 92 -41 150 -67 58 -26 164 -73 235 -105 152 -67 174 -77 278 -124
43 -20 81 -36 86 -36 4 0 29 -11 57 -24 47 -23 125 -59 266 -125 37 -17 74
-41 82 -53 8 -13 17 -59 21 -103 3 -44 15 -156 26 -250 25 -212 47 -432 59
-595 5 -69 12 -161 16 -205 4 -44 4 -78 1 -75 -3 3 -10 70 -16 150 -15 194
-27 309 -61 600 -16 135 -33 281 -37 324 -5 54 -13 81 -22 84 -11 4 -12 -2 -7
-24 4 -15 9 -49 11 -74 6 -81 25 -244 32 -285 4 -22 6 -44 5 -48 -1 -4 9 -97
22 -205 13 -108 27 -242 30 -297 4 -55 13 -147 21 -205 7 -58 19 -151 26 -208
7 -57 17 -106 22 -109 10 -6 5 72 -7 100 -5 10 -4 17 3 17 6 0 11 -6 11 -14 0
-22 27 -38 51 -31 31 10 202 189 254 265 44 67 217 268 242 283 7 4 13 13 13
19 0 6 17 27 38 47 20 20 53 57 73 81 20 25 52 61 70 81 33 35 91 103 107 124
35 48 90 99 106 100 15 0 21 7 22 26 1 30 31 79 49 79 30 0 301 -72 394 -105
98 -36 103 -36 128 -20 56 37 161 142 212 212 37 51 46 57 61 38 9 -10 10 -35
4 -87 -4 -40 -7 -81 -5 -90 1 -10 -2 -26 -8 -35 -9 -16 -10 -15 -11 6 0 32 -6
25 -14 -18 -3 -19 -3 -31 1 -27 5 4 13 -9 19 -30 13 -48 30 -54 245 -88 258
-42 394 -71 392 -84 -2 -7 6 -12 17 -12 11 0 22 0 25 0 11 0 4 15 -8 16 -6 1
-16 2 -21 3 -5 0 -3 8 4 16 10 13 10 19 -2 33 -14 15 -93 149 -156 262 -61
111 -127 228 -144 255 -10 17 -62 104 -114 195 -53 91 -121 207 -151 259 -85
145 -134 251 -117 251 9 0 14 11 14 35 0 19 -5 35 -11 35 -6 0 -9 -6 -6 -14 3
-8 0 -19 -7 -26 -20 -16 -30 19 -12 39 13 15 172 312 190 356 5 11 10 15 12
10 2 -6 -14 -44 -36 -85 -22 -41 -52 -100 -65 -130 -14 -30 -30 -63 -36 -73
-23 -42 -22 -101 4 -157 13 -30 27 -62 30 -70 3 -9 6 -3 6 12 1 15 -8 45 -20
67 -22 43 -19 105 7 115 8 3 14 11 14 18 0 22 62 169 101 240 20 37 45 89 55
115 10 26 28 65 41 85 13 21 23 46 23 57 0 10 7 24 15 31 9 8 13 21 9 32 -3
12 -1 18 7 16 17 -4 49 61 44 87 -3 11 -2 14 1 7 8 -16 34 3 34 25 0 8 9 26
20 41 13 16 17 28 10 32 -7 4 -2 16 12 31 13 14 32 42 43 62 11 20 23 37 27
37 5 0 6 11 2 25 -5 19 -3 25 7 23 8 -2 14 4 15 12 1 22 26 70 36 70 5 0 7 4
4 8 -3 5 4 21 15 38 10 16 19 37 19 46 0 9 4 18 9 20 5 2 13 16 17 32 l7 29
-65 -6 c-56 -5 -141 -24 -423 -92 -33 -8 -100 -24 -150 -35 -139 -32 -371 -86
-575 -135 -102 -25 -192 -45 -201 -45 -9 0 -40 28 -70 63 -29 34 -76 87 -104
117 -179 194 -232 254 -295 330 -46 55 -110 128 -165 185 -16 18 -61 70 -100
116 -38 46 -110 124 -158 172 -82 82 -91 89 -123 85 -29 -3 -33 -1 -28 14 6
19 -1 24 -11 8z m457 -1081 c29 -6 58 -15 63 -19 6 -4 39 -14 75 -23 134 -33
325 -153 448 -281 89 -93 156 -195 145 -222 -4 -10 -2 -15 3 -11 5 3 10 -2 10
-11 1 -9 4 -26 8 -37 5 -15 4 -14 -5 3 -12 21 -29 30 -29 15 0 -5 7 -33 15
-63 23 -85 46 -278 40 -329 -8 -57 -30 -131 -60 -197 -16 -34 -20 -55 -14 -66
9 -17 119 -81 126 -74 2 2 -14 18 -37 36 -23 18 -39 35 -36 38 7 7 98 -55 155
-105 l44 -39 -21 -45 c-33 -72 -44 -76 -89 -37 -71 63 -152 118 -172 118 -11
0 -44 -21 -72 -46 -70 -62 -153 -100 -304 -138 -65 -17 -125 -12 -232 19 -61
18 -153 11 -153 -11 0 -8 -6 -11 -15 -8 -8 4 -15 1 -15 -5 0 -6 5 -12 10 -12
6 -1 16 -2 23 -3 8 -1 11 -19 9 -64 -3 -43 0 -62 8 -62 15 0 4 -89 -16 -139
-41 -99 -131 -72 -122 36 7 79 70 284 86 282 22 -3 30 3 25 21 -3 12 -14 20
-27 20 -23 0 -101 64 -94 77 2 4 10 22 17 40 16 40 32 46 85 32 22 -6 57 -15
77 -20 69 -17 233 -11 303 12 59 20 176 98 176 118 0 5 -39 37 -86 72 -47 35
-100 76 -118 90 -30 24 -61 44 -169 103 l-47 27 -34 -27 c-19 -15 -51 -54 -71
-86 -21 -32 -42 -58 -47 -58 -5 0 -26 13 -46 29 -20 15 -79 59 -129 96 -103
75 -110 88 -65 137 15 17 34 38 42 47 29 32 70 90 70 99 0 5 9 20 21 33 11 13
46 62 76 108 l55 83 127 -7 c69 -4 137 -9 151 -10 14 -2 40 -4 58 -4 17 -1 32
-6 32 -11 0 -14 -83 -140 -92 -140 -5 0 -8 5 -8 10 0 13 -62 -48 -107 -104
-18 -23 -33 -47 -33 -53 0 -7 26 -30 58 -50 31 -21 70 -48 85 -60 16 -13 38
-23 50 -23 21 0 20 1 -5 18 -55 35 -148 107 -148 115 0 13 54 -22 217 -140 55
-39 125 -85 156 -102 31 -17 65 -36 75 -42 32 -20 48 -4 67 66 23 82 40 98 32
27 -3 -28 -18 -73 -32 -99 -26 -45 -26 -47 -8 -60 16 -12 18 -12 21 4 2 10 9
32 16 48 31 68 60 163 64 208 2 30 9 47 17 47 18 0 31 -40 16 -49 -6 -4 -16
-34 -22 -67 -5 -32 -21 -90 -35 -128 -13 -38 -22 -71 -20 -74 6 -6 46 59 46
75 0 6 4 13 9 15 6 2 17 49 26 105 15 92 15 105 1 132 -9 16 -22 34 -29 38 -7
4 -24 47 -37 95 -12 49 -29 93 -36 99 -8 6 -14 20 -14 30 0 10 -4 20 -9 23 -5
4 -19 26 -31 51 -12 25 -26 45 -30 45 -5 0 -11 8 -14 18 -11 33 -199 212 -223
212 -4 0 -33 16 -63 36 -72 47 -140 81 -220 110 -36 13 -66 24 -67 24 -2 0 -3
7 -3 15 0 18 4 18 72 4z m-445 -2916 c-3 -10 -5 -2 -5 17 0 19 2 27 5 18 2
-10 2 -26 0 -35z"/>
<path d="M3750 4865 c0 -6 9 -18 20 -28 21 -18 26 -12 10 13 -5 8 -10 11 -10
5 0 -5 -5 -3 -10 5 -5 8 -10 10 -10 5z"/>
<path d="M3810 4802 c0 -4 9 -13 21 -20 11 -7 18 -19 15 -27 -3 -9 0 -12 9 -9
11 5 10 12 -7 35 -21 28 -38 38 -38 21z"/>
<path d="M3875 4729 c-4 -6 -2 -14 4 -18 7 -5 9 -15 5 -26 -5 -13 -4 -16 4
-11 8 5 10 2 6 -8 -3 -9 -2 -16 3 -16 6 0 15 -12 21 -26 9 -18 17 -24 31 -19
16 5 23 -3 39 -47 11 -29 25 -73 31 -96 7 -23 16 -40 21 -37 20 13 -62 220
-107 270 -34 37 -51 47 -58 34z"/>
<path d="M3390 4550 c0 -5 5 -10 10 -10 6 0 10 5 10 10 0 6 -4 10 -10 10 -5 0
-10 -4 -10 -10z"/>
<path d="M3545 4510 c-3 -5 -1 -10 4 -10 6 0 11 5 11 10 0 6 -2 10 -4 10 -3 0
-8 -4 -11 -10z"/>
<path d="M3495 4480 c-3 -6 1 -7 9 -4 18 7 21 14 7 14 -6 0 -13 -4 -16 -10z"/>
<path d="M3295 4445 c-4 -11 -26 -44 -48 -73 -26 -34 -37 -56 -30 -63 12 -12
96 117 90 140 -3 13 -5 13 -12 -4z"/>
<path d="M3346 4397 c-15 -19 -26 -37 -26 -42 0 -4 -7 -13 -17 -20 -9 -7 -13
-17 -10 -23 8 -12 65 43 89 87 24 44 -3 42 -36 -2z"/>
<path d="M4045 4370 c3 -5 8 -10 11 -10 2 0 4 5 4 10 0 6 -5 10 -11 10 -5 0
-7 -4 -4 -10z"/>
<path d="M3190 4280 c0 -5 -7 -10 -15 -10 -8 0 -15 -7 -15 -15 0 -21 12 -19
33 5 20 23 21 30 7 30 -5 0 -10 -4 -10 -10z"/>
<path d="M3030 4220 c-9 -17 -8 -20 10 -20 13 0 20 7 20 20 0 11 -4 20 -10 20
-5 0 -14 -9 -20 -20z"/>
<path d="M3096 4174 c-4 -9 -3 -21 2 -26 12 -12 23 15 12 31 -5 9 -9 8 -14 -5z"/>
<path d="M4121 4135 c0 -35 2 -37 11 -19 7 15 7 28 -1 40 -9 16 -10 12 -10
-21z"/>
<path d="M4104 4059 c-3 -6 -1 -16 5 -22 8 -8 11 -5 11 11 0 24 -5 28 -16 11z"/>
<path d="M3873 3829 c-2 -27 -1 -28 14 -14 14 14 14 18 2 30 -12 12 -14 10
-16 -16z"/>
<path d="M3925 3820 c-3 -5 -2 -10 4 -10 5 0 13 5 16 10 3 6 2 10 -4 10 -5 0
-13 -4 -16 -10z"/>
<path d="M3644 3696 c-17 -8 -50 -17 -72 -21 -72 -12 -64 -29 9 -21 35 5 75 8
88 7 16 -1 21 3 18 13 -3 7 0 19 6 25 15 15 -9 14 -49 -3z"/>
<path d="M3460 3656 c0 -10 28 -13 41 -5 10 6 7 9 -13 9 -16 0 -28 -2 -28 -4z"/>
<path d="M3573 6038 c2 -71 0 -78 -20 -87 -13 -6 -23 -16 -23 -22 0 -8 -4 -9
-13 0 -17 14 -27 4 -27 -26 0 -29 -14 -30 -33 -2 -9 13 -17 16 -22 10 -3 -6
-11 -11 -16 -11 -6 0 -7 5 -4 10 3 6 1 10 -4 10 -27 0 -6 -31 32 -48 15 -7 25
-17 22 -22 -9 -14 9 -12 24 3 10 10 11 9 6 -3 -5 -15 78 -120 95 -120 10 0 2
245 -10 330 -8 54 -8 53 -7 -22z"/>
<path d="M3668 6031 c2 -23 8 -41 13 -41 13 0 11 44 -4 64 -11 15 -12 12 -9
-23z"/>
<path d="M3315 5998 c15 -18 35 -37 44 -42 9 -5 0 9 -19 31 -19 23 -39 42 -43
42 -5 1 3 -14 18 -31z"/>
<path d="M4636 5975 c8 -37 14 -45 14 -19 0 10 -5 26 -10 34 -8 11 -9 7 -4
-15z"/>
<path d="M3796 5982 c-2 -4 -1 -14 4 -21 10 -17 31 -5 23 14 -6 16 -19 20 -27
7z"/>
<path d="M4128 5935 c-15 -30 -25 -63 -22 -72 5 -14 4 -15 -4 -4 -7 10 -13 8
-26 -10 -17 -26 -21 -59 -7 -59 5 0 12 -15 16 -32 11 -57 16 -68 26 -62 6 3 9
13 8 22 -3 24 11 54 38 79 20 19 23 20 24 5 2 -27 -2 -45 -15 -72 -6 -14 -9
-36 -6 -49 l5 -23 12 23 c7 13 14 38 15 54 l3 30 15 -29 c20 -40 60 -44 60 -7
l1 26 25 -30 c22 -26 25 -27 19 -7 -4 14 -2 22 6 22 14 0 4 -80 -13 -95 -8 -7
-9 -5 -5 8 4 11 1 17 -8 17 -8 0 -15 -8 -16 -17 0 -12 -2 -13 -6 -5 -4 9 -9 8
-21 -6 -27 -30 -68 -36 -85 -11 -19 26 -29 11 -26 -39 2 -21 0 -43 -4 -49 -4
-6 2 -28 14 -48 16 -27 22 -54 23 -101 1 -66 3 -71 24 -54 9 7 9 7 2 -2 -12
-15 -13 -28 -1 -28 5 0 14 12 20 28 5 15 19 43 30 62 37 67 53 111 45 128 -6
14 -8 13 -12 -6 -3 -19 -6 -21 -18 -11 -19 15 -18 29 2 29 8 0 13 4 10 9 -4 5
3 7 14 4 15 -4 21 1 26 23 3 16 13 52 20 80 8 28 17 62 20 75 3 13 8 33 11 44
3 15 -1 21 -14 22 -32 2 -93 21 -107 32 -11 9 -15 9 -20 -1 -3 -7 -3 -2 0 11
5 20 3 23 -11 17 -14 -5 -17 -2 -13 19 3 14 1 25 -3 25 -12 0 -11 32 2 50 8
11 12 12 16 2 2 -6 9 -10 14 -6 5 3 2 13 -7 21 -15 15 -17 15 -26 0 -7 -14
-12 -14 -22 -4 -8 6 -12 15 -9 20 2 4 1 7 -4 7 -4 0 -20 -25 -35 -55z m88
-431 c-3 -9 2 -14 14 -14 24 0 26 -39 6 -85 l-14 -30 5 41 c4 27 1 44 -7 49
-9 6 -10 1 -5 -16 8 -24 8 -24 -14 -5 -23 21 -28 55 -9 74 14 14 31 5 24 -14z"/>
<path d="M4010 5972 c0 -15 28 -47 36 -40 2 3 -4 16 -15 29 -12 14 -20 18 -21
11z"/>
<path d="M4465 5950 c3 -5 8 -10 11 -10 2 0 4 5 4 10 0 6 -5 10 -11 10 -5 0
-7 -4 -4 -10z"/>
<path d="M4428 5883 c-39 -116 -45 -165 -20 -149 24 15 79 167 67 186 -14 22
-32 7 -47 -37z"/>
<path d="M3817 5914 c-12 -13 -8 -81 13 -186 11 -57 20 -111 20 -121 0 -11 6
-33 14 -50 17 -42 39 -127 38 -152 -1 -20 15 -45 29 -45 14 0 10 69 -5 93 -24
36 -44 133 -61 292 -15 138 -29 188 -48 169z"/>
<path d="M4020 5805 c0 -8 4 -15 10 -15 5 0 7 7 4 15 -4 8 -8 15 -10 15 -2 0
-4 -7 -4 -15z"/>
<path d="M3730 5765 c0 -11 5 -27 10 -35 8 -12 10 -12 10 5 0 11 -5 27 -10 35
-8 12 -10 12 -10 -5z"/>
<path d="M4032 5720 c0 -14 2 -19 5 -12 2 6 2 18 0 25 -3 6 -5 1 -5 -13z"/>
<path d="M3950 5705 c0 -8 5 -15 10 -15 6 0 10 7 10 15 0 8 -4 15 -10 15 -5 0
-10 -7 -10 -15z"/>
<path d="M4374 5709 c-12 -20 -42 -129 -36 -129 8 0 53 66 64 93 13 31 -11 63
-28 36z"/>
<path d="M4002 5638 c5 -15 28 -23 28 -10 0 5 -7 13 -16 16 -10 4 -14 1 -12
-6z"/>
<path d="M4062 5580 c0 -14 2 -19 5 -12 2 6 2 18 0 25 -3 6 -5 1 -5 -13z"/>
<path d="M5542 5479 c-7 -12 -11 -24 -8 -27 6 -6 35 27 36 41 0 14 -15 7 -28
-14z"/>
<path d="M4548 5439 c-21 -21 -38 -46 -38 -53 0 -8 -6 -17 -12 -19 -7 -3 -1
-6 13 -6 47 -2 139 49 139 76 0 12 -2 12 -16 -1 -8 -9 -21 -16 -27 -16 -7 0
-23 -9 -37 -20 -30 -23 -40 -25 -40 -6 0 7 15 19 33 27 41 16 80 46 69 53 -4
2 -14 1 -22 -5 -20 -12 -33 -11 -25 1 12 19 0 9 -37 -31z"/>
<path d="M3990 5409 c0 -5 5 -7 10 -4 6 3 10 8 10 11 0 2 -4 4 -10 4 -5 0 -10
-5 -10 -11z"/>
<path d="M4042 5408 c7 -19 38 -22 38 -4 0 10 -9 16 -21 16 -12 0 -19 -5 -17
-12z"/>
<path d="M4480 5400 c0 -5 5 -10 11 -10 5 0 7 5 4 10 -3 6 -8 10 -11 10 -2 0
-4 -4 -4 -10z"/>
<path d="M4152 5380 c0 -14 2 -19 5 -12 2 6 2 18 0 25 -3 6 -5 1 -5 -13z"/>
<path d="M5370 5373 c8 -4 20 -13 27 -22 11 -14 12 -13 13 7 0 18 -5 22 -27
21 -17 0 -22 -3 -13 -6z"/>
<path d="M4440 5360 c0 -5 10 -10 23 -10 18 0 19 2 7 10 -19 13 -30 13 -30 0z"/>
<path d="M4135 5341 c-3 -5 -1 -12 5 -16 5 -3 10 1 10 9 0 18 -6 21 -15 7z"/>
<path d="M5415 5320 c-3 -5 -1 -10 4 -10 6 0 11 5 11 10 0 6 -2 10 -4 10 -3 0
-8 -4 -11 -10z"/>
<path d="M4100 5260 c-9 -18 -8 -18 20 -9 35 13 36 15 10 22 -13 3 -24 -1 -30
-13z"/>
<path d="M3998 5113 c7 -3 16 -2 19 1 4 3 -2 6 -13 5 -11 0 -14 -3 -6 -6z"/>
<path d="M2741 4814 c0 -11 3 -14 6 -6 3 7 2 16 -1 19 -3 4 -6 -2 -5 -13z"/>
<path d="M2728 4765 c-3 -13 -2 -22 2 -20 11 7 20 45 10 45 -4 0 -10 -11 -12
-25z"/>
<path d="M5270 4599 l-25 -20 25 6 c14 4 32 13 40 21 24 23 -10 17 -40 -7z"/>
<path d="M5177 4530 c-53 -71 -60 -92 -20 -60 18 14 32 31 32 38 1 6 12 22 26
34 27 24 32 38 12 38 -7 0 -30 -23 -50 -50z"/>
<path d="M5256 4555 c-11 -8 -15 -15 -10 -15 6 0 19 7 30 15 10 8 15 14 9 14
-5 0 -19 -6 -29 -14z"/>
<path d="M5220 4512 c-22 -25 -51 -92 -41 -92 11 0 71 90 71 106 0 10 -17 2
-30 -14z"/>
<path d="M5059 4353 c-82 -145 -90 -163 -79 -181 10 -15 11 -14 7 6 -3 14 0
22 8 22 14 0 21 12 70 110 15 30 31 63 36 72 5 10 5 19 0 23 -5 3 -24 -21 -42
-52z"/>
<path d="M5155 4400 c-3 -5 -1 -10 4 -10 6 0 11 5 11 10 0 6 -2 10 -4 10 -3 0
-8 -4 -11 -10z"/>
<path d="M5250 4399 c0 -9 -11 -53 -23 -97 -14 -49 -19 -80 -13 -79 6 1 14
-18 17 -43 7 -54 9 -48 15 48 2 40 9 82 14 92 13 24 13 61 0 80 -8 13 -10 13
-10 -1z"/>
<path d="M5130 4361 c-5 -11 -10 -28 -10 -38 0 -15 4 -14 20 7 21 27 26 50 10
50 -5 0 -14 -9 -20 -19z"/>
<path d="M5066 4277 c-15 -19 -26 -39 -26 -46 0 -6 -7 -23 -16 -36 -31 -48 -7
-50 27 -2 60 85 73 160 15 84z"/>
<path d="M5146 4184 c-10 -25 1 -29 14 -5 6 12 7 21 1 21 -5 0 -12 -7 -15 -16z"/>
<path d="M4951 4121 c0 -16 3 -20 6 -11 3 8 10 20 14 26 5 7 3 11 -6 11 -10 0
-15 -10 -14 -26z"/>
<path d="M1353 4063 c15 -2 37 -2 50 0 12 2 0 4 -28 4 -27 0 -38 -2 -22 -4z"/>
<path d="M4905 4050 c-3 -5 1 -10 9 -10 9 0 16 5 16 10 0 6 -4 10 -9 10 -6 0
-13 -4 -16 -10z"/>
<path d="M4800 4040 c0 -5 5 -10 10 -10 6 0 10 5 10 10 0 6 -4 10 -10 10 -5 0
-10 -4 -10 -10z"/>
<path d="M5150 3930 c0 -5 5 -10 11 -10 5 0 7 5 4 10 -3 6 -8 10 -11 10 -2 0
-4 -4 -4 -10z"/>
<path d="M4830 3909 c0 -10 68 -144 150 -294 15 -27 42 -77 60 -110 18 -33 56
-103 85 -155 29 -52 73 -133 98 -180 163 -307 207 -385 217 -388 17 -6 4 33
-30 88 -29 47 -132 235 -208 380 -24 47 -52 96 -62 110 -10 14 -36 61 -59 105
-23 44 -73 139 -111 210 -39 72 -82 156 -97 188 -24 52 -43 73 -43 46z"/>
<path d="M5096 3752 c10 -19 25 -39 33 -45 9 -8 8 0 -5 21 -10 19 -25 39 -33
45 -9 8 -8 0 5 -21z"/>
<path d="M5195 3670 c-8 -13 4 -50 16 -50 5 0 9 5 9 10 0 6 -5 10 -11 10 -6 0
-9 9 -6 20 6 22 2 26 -8 10z"/>
<path d="M5030 3649 c0 -5 5 -7 10 -4 6 3 10 8 10 11 0 2 -4 4 -10 4 -5 0 -10
-5 -10 -11z"/>
<path d="M2729 3382 c5 -9 12 -51 15 -92 7 -71 17 -161 52 -450 8 -69 17 -143
19 -165 2 -22 7 -67 10 -100 14 -134 47 -408 66 -537 10 -75 16 -143 13 -152
-3 -9 -2 -16 4 -16 19 0 22 50 8 147 -8 54 -24 181 -35 283 -12 102 -26 228
-32 280 -12 111 -43 369 -58 490 -6 47 -16 123 -22 170 -16 133 -20 148 -35
154 -11 4 -12 1 -5 -12z"/>
<path d="M4667 2910 c-46 -46 -43 -69 4 -24 32 30 55 64 43 64 -3 0 -24 -18
-47 -40z"/>
<path d="M3891 2874 c0 -11 3 -14 6 -6 3 7 2 16 -1 19 -3 4 -6 -2 -5 -13z"/>
<path d="M4333 2848 c-21 -33 -40 -39 -70 -22 -42 25 -63 14 -58 -30 4 -29 0
-40 -23 -62 l-27 -26 34 17 c18 9 36 25 38 36 3 10 10 19 15 19 5 0 6 -6 2
-12 -8 -12 86 51 116 79 12 11 12 13 -2 13 -10 0 -21 -6 -25 -12z"/>
<path d="M4050 2838 c0 -6 -3 -8 -7 -5 -11 11 -42 -24 -36 -40 4 -11 12 -7 34
17 31 34 34 40 19 40 -5 0 -10 -5 -10 -12z"/>
<path d="M4488 2786 c-30 -15 -49 -19 -51 -12 -2 6 -7 8 -11 5 -4 -3 -2 -18 3
-32 8 -19 6 -28 -5 -37 -7 -7 -15 -9 -16 -4 0 5 -2 14 -3 19 -2 6 -3 18 -4 28
-1 18 -41 25 -41 7 0 -14 -37 -50 -51 -50 -8 0 -7 -5 1 -15 7 -9 10 -18 6 -22
-3 -3 -6 -1 -6 5 0 7 -4 12 -10 12 -5 0 -10 -7 -10 -15 0 -8 -4 -15 -10 -15
-5 0 -10 -7 -10 -15 0 -8 -8 -16 -17 -17 -10 0 -24 -2 -31 -2 -17 -1 -31 -26
-25 -42 2 -7 -5 -18 -17 -24 -11 -6 -18 -15 -15 -20 4 -6 -3 -6 -18 -1 -28 11
-37 6 -37 -21 0 -20 -11 -23 -27 -7 -8 8 -11 5 -10 -12 0 -13 -2 -31 -5 -39
-2 -8 -3 -12 -1 -7 9 14 22 7 16 -10 -4 -11 -3 -14 5 -9 9 5 9 0 2 -20 -22
-56 16 -41 115 47 36 32 91 77 123 99 31 21 64 45 72 52 25 21 90 110 90 123
0 7 7 18 16 25 14 12 39 50 32 50 -2 0 -24 -11 -50 -24z m-258 -256 c0 -5 -5
-10 -11 -10 -5 0 -7 5 -4 10 3 6 8 10 11 10 2 0 4 -4 4 -10z"/>
<path d="M4378 2793 c7 -3 16 -2 19 1 4 3 -2 6 -13 5 -11 0 -14 -3 -6 -6z"/>
<path d="M4100 2778 c0 -5 13 -8 29 -8 17 0 32 3 34 8 3 4 -10 7 -29 7 -19 0
-34 -3 -34 -7z"/>
<path d="M4054 2756 c-3 -8 -1 -23 5 -33 9 -15 10 -13 11 15 0 34 -7 42 -16
18z"/>
<path d="M5556 2743 c4 -12 15 -30 26 -40 20 -18 21 -17 10 2 -6 11 -17 29
-26 40 -15 20 -15 20 -10 -2z"/>
<path d="M3860 2736 c0 -2 7 -6 15 -10 8 -3 15 -1 15 4 0 6 -7 10 -15 10 -8 0
-15 -2 -15 -4z"/>
<path d="M3841 2714 c0 -11 3 -14 6 -6 3 7 2 16 -1 19 -3 4 -6 -2 -5 -13z"/>
<path d="M3950 2720 c0 -5 10 -10 23 -10 18 0 19 2 7 10 -19 13 -30 13 -30 0z"/>
<path d="M4740 2668 c0 -17 3 -19 9 -9 5 7 15 17 22 22 10 6 8 9 -8 9 -17 0
-23 -6 -23 -22z"/>
<path d="M4080 2670 c0 -5 7 -7 15 -4 8 4 15 8 15 10 0 2 -7 4 -15 4 -8 0 -15
-4 -15 -10z"/>
<path d="M3840 2640 c0 -6 -7 -18 -15 -27 -8 -8 -12 -19 -9 -25 4 -6 10 -6 17
1 6 6 19 11 29 11 13 0 17 6 14 23 -3 22 -36 38 -36 17z"/>
<path d="M3958 2612 c-40 -15 -44 -19 -31 -31 14 -13 13 -16 -10 -27 -32 -17
-41 -40 -16 -40 12 0 19 7 19 18 0 10 3 17 8 17 20 -3 34 4 67 32 57 51 46 60
-37 31z"/>
<path d="M3762 2543 c-35 -39 -37 -58 -3 -24 12 12 18 21 14 21 -5 1 3 7 16
14 13 7 20 16 14 19 -5 3 -23 -11 -41 -30z"/>
<path d="M3865 2570 c-3 -5 1 -10 9 -10 8 0 18 5 21 10 3 6 -1 10 -9 10 -8 0
-18 -4 -21 -10z"/>
<path d="M5676 2567 c2 -7 14 -19 27 -26 21 -13 21 -12 -2 13 -27 29 -33 32
-25 13z"/>
<path d="M4010 2560 c0 -5 5 -10 10 -10 6 0 10 5 10 10 0 6 -4 10 -10 10 -5 0
-10 -4 -10 -10z"/>
<path d="M3662 2460 c0 -14 2 -19 5 -12 2 6 2 18 0 25 -3 6 -5 1 -5 -13z"/>
<path d="M3760 2456 c0 -8 -6 -17 -12 -19 -10 -4 -10 -6 -1 -6 7 -1 17 8 23
19 7 14 7 20 0 20 -5 0 -10 -6 -10 -14z"/>
<path d="M3695 2449 c-11 -17 1 -21 15 -4 8 9 8 15 2 15 -6 0 -14 -5 -17 -11z"/>
<path d="M3808 2428 c-45 -59 -53 -87 -14 -43 20 22 41 48 47 58 17 30 -7 19
-33 -15z"/>
<path d="M4010 2431 c0 -5 5 -11 11 -13 5 -2 11 -18 11 -36 1 -36 2 -36 28
-22 24 13 12 67 -13 62 -10 -2 -17 2 -17 8 0 5 -4 10 -10 10 -5 0 -10 -4 -10
-9z"/>
<path d="M3470 2404 c0 -8 5 -12 10 -9 6 3 10 10 10 16 0 5 -4 9 -10 9 -5 0
-10 -7 -10 -16z"/>
<path d="M3700 2396 c0 -8 4 -17 9 -20 5 -4 7 3 4 14 -6 23 -13 26 -13 6z"/>
<path d="M3610 2369 c0 -8 -9 -22 -20 -32 -20 -17 -30 -84 -11 -72 13 7 45
105 37 112 -3 4 -6 0 -6 -8z"/>
<path d="M4475 2350 c-19 -8 -19 -9 3 -9 12 -1 22 4 22 9 0 6 -1 10 -2 9 -2 0
-12 -4 -23 -9z"/>
<path d="M3383 2320 c-3 -11 -9 -18 -13 -15 -4 2 -13 -8 -19 -23 l-13 -27 27
25 c34 31 50 60 34 60 -6 0 -13 -9 -16 -20z"/>
<path d="M3530 2318 c0 -13 -3 -41 -6 -63 -6 -36 -5 -38 9 -25 8 8 18 36 21
63 6 39 5 47 -8 47 -10 0 -16 -9 -16 -22z"/>
<path d="M4430 2330 c-9 -6 -10 -10 -3 -10 6 0 15 5 18 10 8 12 4 12 -15 0z"/>
<path d="M2690 2313 c0 -5 5 -15 10 -23 8 -12 10 -11 10 8 0 12 -4 22 -10 22
-5 0 -10 -3 -10 -7z"/>
<path d="M3411 2249 c-12 -35 -21 -68 -20 -73 0 -6 11 20 25 58 13 38 22 71
20 73 -2 2 -13 -24 -25 -58z"/>
<path d="M3758 2261 c-8 -51 1 -141 13 -141 16 0 17 18 5 100 -12 83 -12 84
-18 41z"/>
<path d="M3711 2258 c0 -13 7 -39 14 -58 l13 -35 1 42 c1 46 -6 73 -20 73 -5
0 -9 -10 -8 -22z"/>
<path d="M4340 2259 c0 -5 5 -7 10 -4 6 3 10 8 10 11 0 2 -4 4 -10 4 -5 0 -10
-5 -10 -11z"/>
<path d="M3316 2233 c-6 -14 -5 -15 5 -6 7 7 10 15 7 18 -3 3 -9 -2 -12 -12z"/>
<path d="M4307 2198 c-10 -5 -21 -7 -24 -5 -3 3 -23 -4 -45 -15 -22 -12 -66
-26 -96 -32 -52 -11 -57 -14 -66 -46 -5 -19 -16 -39 -23 -43 -7 -4 -13 -15
-13 -23 0 -9 5 -12 12 -8 8 5 9 2 5 -9 -3 -9 -2 -19 3 -22 14 -9 12 -23 -2
-28 -14 -4 15 -1 80 8 23 4 40 10 37 15 -3 4 2 11 11 14 28 11 38 6 18 -8 -16
-12 -7 -12 61 1 44 8 82 19 83 24 2 5 7 8 10 6 4 -2 15 4 25 15 9 10 14 19 10
19 -5 1 -20 3 -35 4 -34 5 -78 33 -78 51 0 8 4 14 10 14 9 0 44 70 38 76 -2 1
-11 -2 -21 -8z"/>
<path d="M3239 2143 c-13 -16 -12 -17 4 -4 16 13 21 21 13 21 -2 0 -10 -8 -17
-17z"/>
<path d="M4035 2111 c-3 -5 -1 -12 5 -16 5 -3 10 1 10 9 0 18 -6 21 -15 7z"/>
<path d="M3856 2074 c-3 -9 -6 -26 -6 -40 0 -14 -14 -36 -35 -55 -48 -44 -46
-60 9 -57 32 1 43 5 39 15 -6 15 13 18 22 3 9 -15 58 -12 80 4 11 8 25 11 33
9 8 -3 15 3 19 16 3 11 9 18 14 15 5 -3 9 0 9 5 0 14 -6 14 -32 0 -66 -36
-139 -2 -141 66 -1 39 -2 42 -11 19z"/>
<path d="M3292 2016 c-29 -36 -52 -73 -52 -83 1 -19 8 -11 69 67 13 17 26 29
29 26 2 -3 -1 -13 -9 -22 -7 -9 -14 -30 -15 -48 0 -17 -4 -62 -7 -101 l-6 -70
19 89 c10 49 24 101 29 115 15 38 18 84 5 88 -5 2 -33 -26 -62 -61z"/>
<path d="M3970 2039 c0 -5 5 -7 10 -4 6 3 10 8 10 11 0 2 -4 4 -10 4 -5 0 -10
-5 -10 -11z"/>
<path d="M4403 1961 c-22 -16 -49 -32 -61 -35 -12 -4 -22 -12 -22 -17 0 -5 -5
-9 -12 -9 -6 0 -19 -7 -29 -16 -41 -37 -176 -114 -208 -120 -63 -10 -89 -24
-94 -51 -4 -24 -3 -25 32 -19 20 3 69 13 110 22 71 16 77 20 165 103 50 48
112 102 139 121 26 18 47 37 47 42 0 16 -28 8 -67 -21z"/>
<path d="M2691 1900 c-1 -25 -4 -55 -7 -67 -4 -13 -2 -23 4 -23 12 0 20 79 11
112 -5 16 -7 10 -8 -22z"/>
<path d="M2970 1916 c0 -9 5 -16 10 -16 6 0 10 4 10 9 0 6 -4 13 -10 16 -5 3
-10 -1 -10 -9z"/>
<path d="M3000 1880 c0 -19 3 -21 12 -12 9 9 9 15 0 24 -9 9 -12 7 -12 -12z"/>
<path d="M3240 1858 c-16 -35 -20 -66 -20 -170 0 -77 4 -128 10 -128 5 0 9 37
9 88 0 108 6 155 25 210 9 25 11 42 5 42 -5 0 -19 -19 -29 -42z"/>
<path d="M3166 1795 c-3 -9 0 -15 9 -15 8 0 15 7 15 15 0 8 -4 15 -9 15 -5 0
-11 -7 -15 -15z"/>
<path d="M2660 1774 c0 -8 5 -12 10 -9 6 3 10 10 10 16 0 5 -4 9 -10 9 -5 0
-10 -7 -10 -16z"/>
<path d="M3110 1782 c-20 -6 -77 -60 -103 -97 -13 -19 1 -9 39 26 32 31 66 58
74 61 19 7 10 17 -10 10z"/>
<path d="M3149 1755 c-3 -6 -5 -17 -4 -25 1 -8 3 -54 3 -102 1 -49 6 -88 10
-88 5 0 16 6 25 13 12 9 17 32 20 90 3 74 2 80 -19 87 -12 5 -24 14 -26 21 -2
7 -7 9 -9 4z m31 -127 c0 -31 -3 -59 -7 -61 -5 -3 -9 29 -9 70 -1 46 2 70 7
62 5 -8 9 -40 9 -71z"/>
<path d="M3271 1653 c0 -62 2 -113 7 -113 7 0 5 178 -2 210 -2 8 -4 -36 -5
-97z"/>
<path d="M3471 1691 c-11 -7 -12 -13 -3 -24 9 -11 8 -18 -7 -34 -10 -11 -22
-29 -25 -41 -4 -12 -12 -22 -18 -22 -5 0 -8 -5 -6 -12 3 -7 -13 -35 -34 -63
-21 -27 -48 -70 -60 -95 -13 -25 -33 -58 -46 -74 -27 -33 -23 -41 13 -32 18 5
25 12 21 22 -18 47 68 148 149 174 22 7 59 23 83 37 40 22 42 26 42 68 0 38 3
45 19 45 27 0 51 10 51 22 0 7 -15 8 -39 4 -39 -6 -91 9 -91 26 0 11 -31 10
-49 -1z"/>
<path d="M3868 1663 c-10 -2 -18 -11 -18 -20 0 -11 -7 -14 -25 -11 -16 3 -25
1 -25 -7 0 -7 -7 -16 -16 -19 -8 -3 -12 -10 -9 -16 7 -11 145 56 145 71 0 9
-22 10 -52 2z"/>
<path d="M2688 1644 c-18 -10 -29 -25 -34 -48 -7 -43 2 -62 22 -45 11 9 14 9
14 -1 0 -7 7 -10 15 -6 8 3 15 1 15 -4 0 -6 18 -10 40 -10 33 0 40 3 40 20 0
28 -42 91 -57 85 -7 -2 -16 2 -20 10 -7 11 -12 11 -35 -1z"/>
<path d="M3297 1493 c-4 -3 -7 -22 -7 -42 0 -33 1 -34 15 -15 24 31 17 82 -8
57z"/>
<path d="M3906 1429 c-4 -28 -5 -53 -3 -56 3 -2 8 19 12 47 4 28 5 53 2 56 -2
3 -7 -19 -11 -47z"/>
<path d="M3810 1411 c-97 -104 -130 -148 -130 -176 0 -23 2 -25 23 -14 30 16
77 60 77 73 0 6 9 17 21 24 17 11 79 126 79 147 0 15 -21 -1 -70 -54z"/>
<path d="M3075 1431 c-6 -10 2 -72 11 -80 2 -2 4 7 4 20 0 13 3 34 6 47 6 22
-9 31 -21 13z"/>
<path d="M3260 1415 c0 -8 5 -15 10 -15 6 0 10 7 10 15 0 8 -4 15 -10 15 -5 0
-10 -7 -10 -15z"/>
<path d="M3127 1376 c-6 -15 1 -26 15 -26 4 0 8 9 8 20 0 23 -15 27 -23 6z"/>
<path d="M3195 1360 c-3 -5 -1 -10 4 -10 6 0 11 5 11 10 0 6 -2 10 -4 10 -3 0
-8 -4 -11 -10z"/>
<path d="M3087 1324 c3 -7 9 -14 14 -14 14 0 10 17 -5 23 -10 4 -13 1 -9 -9z"/>
<path d="M3375 1330 c-3 -6 1 -7 9 -4 18 7 21 14 7 14 -6 0 -13 -4 -16 -10z"/>
<path d="M3190 1300 c-13 -9 -13 -11 0 -20 12 -7 10 -14 -15 -40 -34 -35 -29
-38 19 -9 28 16 36 27 36 50 0 30 -13 36 -40 19z"/>
<path d="M3145 1290 c3 -5 10 -10 16 -10 5 0 9 5 9 10 0 6 -7 10 -16 10 -8 0
-12 -4 -9 -10z"/>
<path d="M3065 1261 c3 -12 0 -21 -10 -25 -8 -3 -15 -16 -15 -28 1 -22 2 -22
29 8 16 17 35 34 42 37 8 3 5 6 -8 6 -13 1 -23 6 -23 11 0 6 -5 10 -11 10 -6
0 -8 -8 -4 -19z"/>
<path d="M3590 1254 c-19 -14 -43 -23 -52 -20 -10 2 -18 0 -18 -5 0 -5 -12
-14 -26 -19 -14 -6 -40 -21 -57 -34 -18 -13 -48 -27 -67 -31 -19 -4 -55 -17
-80 -30 -96 -50 -116 -58 -157 -61 -23 -1 -52 -9 -64 -18 -12 -8 -28 -12 -36
-9 -7 3 -13 2 -12 -3 4 -22 -2 -44 -16 -58 -17 -17 -10 -46 11 -46 11 0 13
-10 8 -42 -8 -54 -28 -92 -56 -112 -12 -9 -20 -18 -17 -21 7 -7 208 154 242
194 15 18 27 39 27 46 0 18 47 65 64 65 7 0 34 16 59 35 25 19 51 35 56 35 6
0 11 4 11 9 0 5 8 11 18 15 9 3 24 10 32 16 8 5 26 15 40 21 43 17 74 37 110
68 42 36 29 40 -20 5z"/>
<path d="M3070 1160 c-9 -6 -10 -10 -3 -10 6 0 15 5 18 10 8 12 4 12 -15 0z"/>
<path d="M2940 1054 c0 -8 5 -12 10 -9 6 3 10 10 10 16 0 5 -4 9 -10 9 -5 0
-10 -7 -10 -16z"/>
<path d="M2975 810 c-3 -5 -1 -10 4 -10 6 0 11 5 11 10 0 6 -2 10 -4 10 -3 0
-8 -4 -11 -10z"/>
<path d="M2755 572 c-16 -25 -53 -76 -82 -111 -28 -36 -49 -70 -45 -75 3 -6 7
-6 10 2 2 6 18 26 36 44 32 32 121 176 114 183 -2 2 -17 -17 -33 -43z"/>
<path d="M2752 478 c-7 -7 -12 -18 -12 -25 0 -8 -7 -16 -15 -19 -8 -4 -15 -12
-15 -20 0 -8 -4 -14 -9 -14 -5 0 -11 -8 -14 -17 -10 -31 -56 -106 -69 -114 -7
-4 -9 -12 -4 -16 4 -4 14 1 22 12 12 15 99 161 131 218 6 11 -2 8 -15 -5z"/>
<path d="M2521 296 c-7 -8 -11 -23 -8 -33 3 -14 6 -12 16 11 13 33 9 43 -8 22z"/>
</g>
</svg>
